<svg width="17" height="17" viewBox="0 0 17 17" fill="none" xmlns="http://www.w3.org/2000/svg">
<g clip-path="url(#clip0_298_5138)">
<path d="M5.11595 7.35466C4.86585 7.70352 4.74904 8.13045 4.78671 8.55804C4.82439 8.98564 5.01404 9.38557 5.32128 9.68533C5.89869 9.41989 6.53205 9.29907 7.16662 9.33333V9.09066C6.30708 8.75943 5.58451 8.14774 5.11595 7.35466Z" fill="black"/>
<path d="M6.13183 8.15467C6.50351 8.49823 6.94853 8.75266 7.43316 8.89867V9.6C7.86783 10.296 9.13183 10.296 9.5665 9.6V8.89867C12.6636 7.92509 13.0201 3.63906 10.7345 1.85333C10.7624 2.0554 10.9631 2.63707 10.8758 2.832C10.8489 2.91492 10.802 2.98993 10.7392 3.05039C10.6764 3.11086 10.5997 3.15491 10.5158 3.17867C9.89044 3.36285 9.24242 3.45889 8.5905 3.464C7.87784 3.47666 7.16744 3.38044 6.48383 3.17867C6.36886 3.14613 6.2683 3.07564 6.1985 2.97867C5.96422 2.67345 6.24094 2.1229 6.26783 1.85333C4.4108 3.31512 4.21708 6.55695 6.13183 8.15467ZM5.83316 3.73333C5.83322 3.68751 5.84517 3.64249 5.86783 3.60267C6.50783 4.97333 7.30516 5.28 8.86516 5.35467C9.7425 5.40533 10.5052 5.312 11.0678 6.03735C11.0945 6.06956 11.1283 6.09512 11.1665 6.11201C11.3506 9.5772 6.51653 10.2037 5.86247 6.79199C5.80655 6.60873 5.8426 3.99035 5.83316 3.73333Z" fill="black"/>
<path d="M10.0998 9.60001C9.68111 11.008 7.31844 11.008 6.89977 9.60001C5.98062 9.60088 5.09937 9.9664 4.44944 10.6163C3.7995 11.2663 3.43398 12.1475 3.43311 13.0667V15.7333C3.43332 15.804 3.46148 15.8717 3.51144 15.9217C3.56141 15.9716 3.62911 15.9998 3.69977 16H13.2998C13.3704 15.9998 13.4381 15.9716 13.4881 15.9217C13.5381 15.8717 13.5662 15.804 13.5664 15.7333V13.0667C13.5656 12.1475 13.2 11.2663 12.5501 10.6163C11.9002 9.9664 11.0189 9.60088 10.0998 9.60001ZM8.23311 13.6C8.23436 13.5301 8.263 13.4635 8.31287 13.4145C8.36275 13.3655 8.42986 13.3381 8.49977 13.3381C8.56968 13.3381 8.6368 13.3655 8.68667 13.4145C8.73654 13.4635 8.76519 13.5301 8.76644 13.6C8.76519 13.6699 8.73654 13.7365 8.68667 13.7855C8.6368 13.8345 8.56968 13.8619 8.49977 13.8619C8.42986 13.8619 8.36275 13.8345 8.31287 13.7855C8.263 13.7365 8.23436 13.6699 8.23311 13.6ZM8.23311 12.5333C8.23436 12.4634 8.263 12.3968 8.31287 12.3478C8.36275 12.2988 8.42986 12.2714 8.49977 12.2714C8.56968 12.2714 8.6368 12.2988 8.68667 12.3478C8.73654 12.3968 8.76519 12.4634 8.76644 12.5333C8.76519 12.6032 8.73654 12.6699 8.68667 12.7188C8.6368 12.7678 8.56968 12.7953 8.49977 12.7953C8.42986 12.7953 8.36275 12.7678 8.31287 12.7188C8.263 12.6699 8.23436 12.6032 8.23311 12.5333ZM8.23311 11.4667C8.23436 11.3968 8.263 11.3302 8.31287 11.2812C8.36275 11.2322 8.42986 11.2047 8.49977 11.2047C8.56968 11.2047 8.6368 11.2322 8.68667 11.2812C8.73654 11.3302 8.76519 11.3968 8.76644 11.4667C8.76519 11.5366 8.73654 11.6032 8.68667 11.6522C8.6368 11.7012 8.56968 11.7286 8.49977 11.7286C8.42986 11.7286 8.36275 11.7012 8.31287 11.6522C8.263 11.6032 8.23436 11.5366 8.23311 11.4667ZM11.9664 12.5333H11.5424L11.0891 12.9893C11.0386 13.0389 10.9706 13.0667 10.8998 13.0667C10.829 13.0667 10.761 13.0389 10.7104 12.9893L10.2571 12.5333H9.83311C9.76321 12.5321 9.69659 12.5034 9.6476 12.4536C9.59862 12.4037 9.57117 12.3366 9.57117 12.2667C9.57117 12.1968 9.59862 12.1296 9.6476 12.0798C9.69659 12.0299 9.76321 12.0013 9.83311 12C10.0331 12.016 10.4544 11.9467 10.5558 12.0773L10.8998 12.424L11.2438 12.0773C11.3424 11.9467 11.7691 12.016 11.9664 12C12.0363 12.0013 12.103 12.0299 12.1519 12.0798C12.2009 12.1296 12.2284 12.1968 12.2284 12.2667C12.2284 12.3366 12.2009 12.4037 12.1519 12.4536C12.103 12.5034 12.0363 12.5321 11.9664 12.5333Z" fill="black"/>
<path d="M10.2465 0.882672L10.0945 0.208006C10.0791 0.14085 10.0382 0.0822686 9.98059 0.0445016C9.92295 0.00673457 9.85294 -0.00729682 9.78519 0.00533886L8.49986 0.234672L7.21453 0.00533886C7.14678 -0.00729682 7.07677 0.00673457 7.01913 0.0445016C6.96148 0.0822686 6.92066 0.14085 6.90519 0.208006C6.87053 0.373339 6.80919 0.634672 6.75586 0.885339L8.49986 1.32267L10.2465 0.882672Z" fill="black"/>
<path d="M6.55864 2.92267C7.82633 3.29334 9.17364 3.29334 10.4413 2.92267C10.5065 2.90367 10.5621 2.8606 10.5968 2.80218C10.6314 2.74375 10.6426 2.67435 10.628 2.608C10.5747 2.37334 10.4627 1.864 10.3693 1.44L8.49997 1.90934L6.63064 1.44L6.37197 2.608C6.35738 2.67435 6.36855 2.74375 6.4032 2.80218C6.43786 2.8606 6.49342 2.90367 6.55864 2.92267Z" fill="black"/>
</g>
<defs>
<clipPath id="clip0_298_5138">
<rect width="10.1333" height="16" fill="white" transform="translate(3.43311)"/>
</clipPath>
</defs>
</svg>
