<svg width="150" height="20" viewBox="0 0 150 20" fill="none" xmlns="http://www.w3.org/2000/svg">
<g clip-path="url(#clip0_398_1771)">
<path d="M26.6485 10.6379V15.8974H24.2217V1.6091C25.8433 1.53897 26.7882 1.50391 27.0622 1.50391C29.2206 1.50391 30.803 1.84869 31.8039 2.54412C32.8048 3.23369 33.3025 4.32065 33.3025 5.78746C33.3025 9.06587 31.4517 10.708 27.7556 10.708C27.476 10.708 27.1126 10.6846 26.6485 10.6379ZM26.6485 3.80639V8.38214C27.0566 8.42889 27.381 8.45227 27.6214 8.45227C28.7285 8.45227 29.5393 8.25942 30.0482 7.87372C30.557 7.48803 30.8142 6.85689 30.8142 5.98615C30.8142 4.50181 29.6735 3.75964 27.3865 3.75964C27.1349 3.75964 26.8889 3.77717 26.6485 3.80639Z" fill="white"/>
<path d="M41.092 7.72202C40.6727 7.43567 40.2197 7.29542 39.7165 7.29542C39.1741 7.29542 38.6932 7.55255 38.2738 8.06681C37.8545 8.57522 37.642 9.20636 37.642 9.94853V15.9034H35.3047V5.44875H37.642V6.4013C38.2962 5.63576 39.1629 5.25006 40.2477 5.25006C41.0473 5.25006 41.6568 5.37863 42.0762 5.62991L41.092 7.72202Z" fill="white"/>
<path d="M44.1118 15.9033V7.44721H42.8311V5.44861H46.4719V15.9033H44.1118V15.9033ZM45.3142 1.3988C45.6889 1.3988 46.0077 1.53906 46.2705 1.81372C46.5334 2.09422 46.6676 2.42732 46.6676 2.81302C46.6676 3.20456 46.5334 3.53766 46.2705 3.81232C46.0077 4.08698 45.6889 4.22724 45.3142 4.22724C44.9395 4.22724 44.6207 4.08698 44.3578 3.81232C44.0894 3.53766 43.9608 3.20456 43.9608 2.81302C43.9608 2.42148 44.095 2.08838 44.3578 1.81372C44.6207 1.53321 44.9395 1.3988 45.3142 1.3988Z" fill="white"/>
<path d="M48.5342 10.6498C48.5342 9.05437 48.9759 7.75704 49.8538 6.75773C50.7373 5.75259 51.9003 5.25586 53.343 5.25586C54.8639 5.25586 56.0438 5.73506 56.8825 6.6993C57.7212 7.66353 58.1462 8.9784 58.1462 10.6556C58.1462 12.3211 57.7157 13.6477 56.8601 14.6294C56.0046 15.6112 54.8304 16.1021 53.343 16.1021C51.8221 16.1021 50.6422 15.6054 49.7979 14.6119C48.9591 13.6184 48.5342 12.2977 48.5342 10.6498ZM50.9665 10.6498C50.9665 12.9522 51.7606 14.1035 53.3486 14.1035C54.0755 14.1035 54.6514 13.8054 55.082 13.2035C55.507 12.6074 55.7194 11.7542 55.7194 10.6439C55.7194 8.37064 54.9254 7.23693 53.3486 7.23693C52.6217 7.23693 52.0401 7.53497 51.6096 8.13689C51.179 8.73881 50.9665 9.57448 50.9665 10.6498Z" fill="white"/>
<path d="M65.7952 7.72202C65.3758 7.43567 64.9229 7.29541 64.4196 7.29541C63.8772 7.29541 63.3963 7.55254 62.977 8.06681C62.5576 8.58107 62.3451 9.20636 62.3451 9.95438V15.9093H60.0078V5.44875H62.3451V6.4013C62.9993 5.63576 63.866 5.25006 64.9508 5.25006C65.7504 5.25006 66.3599 5.37863 66.7793 5.62991L65.7952 7.72202Z" fill="white"/>
<path d="M68.8149 15.9033V7.44721H67.5342V5.44861H71.175V15.9033H68.8149V15.9033ZM70.0173 1.3988C70.392 1.3988 70.7108 1.53906 70.9736 1.81372C71.2365 2.09422 71.3707 2.42732 71.3707 2.81302C71.3707 3.20456 71.2365 3.53766 70.9736 3.81232C70.7108 4.08698 70.3864 4.22724 70.0173 4.22724C69.6426 4.22724 69.3238 4.08698 69.061 3.81232C68.7981 3.53766 68.6639 3.20456 68.6639 2.81302C68.6639 2.42148 68.7981 2.08838 69.061 1.81372C69.3238 1.53321 69.6426 1.3988 70.0173 1.3988Z" fill="white"/>
<path d="M74.2502 7.4123H73.0928V5.44876H74.2502V3.32159L76.5875 2.42163V5.44876H79.333V7.4123H76.5875V11.988C76.5875 12.7361 76.6994 13.2679 76.923 13.5717C77.1467 13.8815 77.5381 14.0334 78.1029 14.0334C78.662 14.0334 79.1877 13.8756 79.6741 13.5542V15.7982C79.1317 15.9911 78.3601 16.0904 77.3592 16.0904C76.3639 16.0904 75.5978 15.7983 75.061 15.208C74.5242 14.6178 74.2558 13.7821 74.2558 12.6952V7.4123H74.2502Z" fill="white"/>
<path d="M85.9034 17.5806C85.6518 18.276 85.1206 18.8546 84.2986 19.3162C83.4766 19.7721 82.5261 20.0058 81.4357 20.0058V17.8494C83.2362 17.8494 84.1365 17.3761 84.1365 16.4352C84.1365 15.8099 83.8848 14.8515 83.3872 13.5659L80.2559 5.45459H82.677L85.4058 12.6776L87.8605 5.45459H90.2817L85.9034 17.5806Z" fill="white"/>
<path d="M100.017 3.85316V7.2017H104.831V9.36393H100.017V15.9032H97.5898V1.60327H106.604V3.85316H100.017Z" fill="white"/>
<path d="M109.014 1.55088L111.351 0.966492V12.7185C111.351 14.01 111.715 14.7756 112.453 15.021C112.09 15.734 111.474 16.0963 110.602 16.0963C109.545 16.0963 109.014 15.3307 109.014 13.7938V1.55088Z" fill="white"/>
<path d="M118.681 17.5806C118.435 18.276 117.898 18.8546 117.082 19.3162C116.26 19.7721 115.309 20.0058 114.219 20.0058V17.8494C116.019 17.8494 116.92 17.3761 116.92 16.4352C116.92 15.8099 116.668 14.8515 116.17 13.5659L113.039 5.45459H115.46L118.189 12.6776L120.644 5.45459H123.065L118.681 17.5806Z" fill="white"/>
<path d="M133.393 11.4212H126.247C126.291 12.251 126.565 12.8997 127.069 13.3614C127.572 13.823 128.254 14.0568 129.104 14.0568C130.166 14.0568 130.977 13.7704 131.531 13.186L132.436 15.0502C131.615 15.7457 130.39 16.0963 128.757 16.0963C127.231 16.0963 126.023 15.6288 125.139 14.6938C124.25 13.7587 123.809 12.4556 123.809 10.7842C123.809 9.13623 124.295 7.80383 125.268 6.78115C126.241 5.75848 127.41 5.25006 128.774 5.25006C130.222 5.25006 131.391 5.70004 132.269 6.60584C133.147 7.51164 133.583 8.66288 133.583 10.0596C133.588 10.3634 133.521 10.8134 133.393 11.4212ZM126.33 9.58621H131.245C131.083 8.05512 130.273 7.28957 128.819 7.28957C127.482 7.28957 126.655 8.05512 126.33 9.58621Z" fill="white"/>
<path d="M141.238 7.72202C140.818 7.43567 140.365 7.29541 139.862 7.29541C139.32 7.29541 138.839 7.55254 138.419 8.06681C138 8.58107 137.788 9.20636 137.788 9.95438V15.9093H135.45V5.44875H137.788V6.4013C138.442 5.63576 139.308 5.25006 140.393 5.25006C141.193 5.25006 141.802 5.37863 142.222 5.62991L141.238 7.72202Z" fill="white"/>
<path d="M143.01 15.2255L143.843 13.2854C144.542 13.8639 145.331 14.1561 146.209 14.1561C147.12 14.1561 147.573 13.8172 147.573 13.1393C147.573 12.7419 147.439 12.4146 147.165 12.1633C146.891 11.9121 146.36 11.6082 145.565 11.2634C143.843 10.5154 142.977 9.46932 142.977 8.11939C142.977 7.21359 143.306 6.51232 143.966 6.0039C144.626 5.50133 145.47 5.2442 146.494 5.2442C147.534 5.2442 148.512 5.48964 149.429 5.97469L148.758 7.8681C148.249 7.41228 147.539 7.18437 146.628 7.18437C145.812 7.18437 145.403 7.52331 145.403 8.2012C145.403 8.47002 145.538 8.70962 145.806 8.92584C146.074 9.14206 146.65 9.42841 147.528 9.79073C148.406 10.1531 149.038 10.5913 149.424 11.1056C149.81 11.6199 150.005 12.2393 150.005 12.9698C150.005 13.9399 149.664 14.6996 148.971 15.2606C148.283 15.8158 147.349 16.0963 146.164 16.0963C145.498 16.0963 144.962 16.0378 144.565 15.9268C144.156 15.8099 143.642 15.582 143.01 15.2255Z" fill="white"/>
</g>
<path d="M15.9863 19.25H1.3125V16.2539H15.9863V19.25ZM19.5479 2.32812L13.5586 8.33008L8.61719 13.2822L7.45508 14.4463L6.28906 13.2861L0 7.02637L1.16211 5.8584L2.32422 4.69141L7.44629 9.79004L10.0889 7.14258L6.26074 3.1416L7.45117 2.00195L8.6416 0.863281L12.417 4.80859L17.2158 0L19.5479 2.32812Z" fill="#E01F3D"/>
<defs>
<clipPath id="clip0_398_1771">
<rect width="125.778" height="19.0335" fill="white" transform="translate(24.2217 0.966492)"/>
</clipPath>
</defs>
</svg>
